<?xml version="1.0" standalone="no"?>
<!DOCTYPE svg PUBLIC "-//W3C//DTD SVG 20010904//EN"
 "http://www.w3.org/TR/2001/REC-SVG-20010904/DTD/svg10.dtd">
<svg version="1.0" xmlns="http://www.w3.org/2000/svg"
 width="553.000000pt" height="678.000000pt" viewBox="0 0 553.000000 678.000000"
 preserveAspectRatio="xMidYMid meet">

<g transform="translate(0.000000,678.000000) scale(0.100000,-0.100000)"
fill="#3521b5" stroke="none">
<path d="M0 6025 l0 -755 235 0 235 0 0 250 0 250 255 0 255 0 0 255 0 255
260 0 260 0 0 250 0 250 -750 0 -750 0 0 -755z"/>
<path d="M3460 6333 c0 -10 393 -403 403 -403 4 0 6 91 5 203 l-3 202 -202 3
c-112 1 -203 -1 -203 -5z"/>
<path d="M3880 6332 c0 -9 393 -402 403 -402 4 0 7 92 7 205 l0 205 -205 0
c-113 0 -205 -3 -205 -8z"/>
<path d="M4495 6140 c110 -110 201 -200 202 -200 2 0 3 90 3 200 l0 200 -202
0 -203 0 200 -200z"/>
<path d="M4720 6332 c0 -9 383 -392 393 -392 4 0 7 90 7 200 l0 200 -200 0
c-110 0 -200 -3 -200 -8z"/>
<path d="M4490 5715 c107 -107 198 -195 202 -195 5 0 8 88 8 195 l0 195 -202
0 -203 0 195 -195z"/>
<path d="M4910 5715 l195 -195 6 62 c4 35 7 123 8 196 l1 132 -202 0 -203 0
195 -195z"/>
<path d="M2925 5054 c-247 -38 -425 -124 -585 -284 -135 -134 -225 -297 -267
-483 -22 -97 -22 -317 0 -414 85 -375 375 -665 750 -750 97 -22 317 -22 414 0
357 81 647 358 738 703 55 210 39 435 -45 638 -117 282 -391 507 -693 572 -73
15 -257 26 -312 18z m268 -29 c199 -35 365 -122 513 -269 269 -270 354 -649
224 -1009 -91 -250 -317 -476 -567 -567 -219 -79 -447 -79 -666 0 -250 91
-476 317 -567 567 -130 360 -45 739 224 1009 226 226 530 323 839 269z"/>
<path d="M2903 4656 c-196 -45 -370 -202 -432 -391 -100 -306 70 -644 374
-744 306 -100 644 70 744 374 100 306 -70 644 -374 744 -89 29 -226 36 -312
17z m255 -21 c207 -49 378 -220 427 -427 83 -351 -193 -698 -555 -698 -310 0
-570 260 -570 570 0 308 256 566 565 569 39 0 98 -6 133 -14z"/>
<path d="M516 3241 c-37 -38 -47 -54 -44 -75 3 -26 6 -24 78 49 73 74 74 75
44 75 -22 0 -41 -12 -78 -49z"/>
<path d="M627 3132 c-136 -136 -158 -163 -155 -186 3 -24 18 -11 188 159 171
171 183 185 155 185 -26 0 -54 -24 -188 -158z"/>
<path d="M742 3017 c-239 -239 -273 -277 -270 -301 3 -24 31 1 303 274 273
273 297 300 270 300 -26 0 -67 -37 -303 -273z"/>
<path d="M857 2902 c-341 -341 -388 -392 -385 -416 3 -24 43 14 418 389 376
376 412 415 385 415 -26 0 -80 -50 -418 -388z"/>
<path d="M967 2792 c-439 -439 -498 -502 -495 -526 3 -24 55 26 528 499 473
473 522 525 495 525 -26 0 -92 -62 -528 -498z"/>
<path d="M1082 2677 c-542 -542 -613 -617 -610 -641 3 -24 68 38 643 614 576
576 637 640 610 640 -26 0 -105 -75 -643 -613z"/>
<path d="M1192 2567 c-640 -640 -723 -727 -720 -751 3 -24 80 50 753 724 673
673 747 750 720 750 -26 0 -117 -87 -753 -723z"/>
<path d="M1310 2445 c-640 -640 -664 -665 -630 -665 33 0 72 37 668 633 599
599 633 635 630 665 -3 31 -28 7 -668 -633z"/>
<path d="M1435 2320 c-487 -487 -537 -540 -510 -540 26 0 94 64 543 513 452
453 513 517 510 541 -3 24 -57 -27 -543 -514z"/>
<path d="M1555 2200 c-380 -380 -417 -420 -390 -420 26 0 80 50 423 393 346
346 393 397 390 421 -3 24 -44 -14 -423 -394z"/>
<path d="M5070 2260 l0 -250 -265 0 -265 0 -2 -252 -3 -253 -248 -3 -248 -2 1
-253 1 -252 -255 -3 -256 -2 -2 -253 -3 -252 -252 -3 -253 -2 0 -240 0 -240
1255 0 1255 0 0 1255 0 1255 -230 0 -230 0 0 -250z"/>
<path d="M1675 2080 c-273 -273 -297 -300 -270 -300 26 0 67 37 303 273 239
239 273 277 270 301 -3 24 -31 -1 -303 -274z"/>
<path d="M1800 1955 c-162 -162 -173 -175 -145 -175 26 0 53 23 178 148 127
127 148 153 145 176 -3 24 -17 12 -178 -149z"/>
<path d="M1920 1835 l-54 -55 30 0 c41 0 87 47 82 84 -3 26 -4 26 -58 -29z"/>
</g>
</svg>
