<?xml version="1.0" encoding="utf-8"?>
<!-- Generator: Adobe Illustrator 25.2.1, SVG Export Plug-In . SVG Version: 6.00 Build 0)  -->
<svg version="1.1" id="Layer_1" xmlns="http://www.w3.org/2000/svg" xmlns:xlink="http://www.w3.org/1999/xlink" x="0px" y="0px"
	 viewBox="0 0 1920 1080" style="enable-background:new 0 0 1920 1080;" xml:space="preserve">
<style type="text/css">
	.st0{fill:#3FA9F5;}
	.st1{fill:#3FA9F5;stroke:#3FA9F5;stroke-width:10;stroke-miterlimit:10;}
	.st2{fill:#FFFFFF;}
	.st3{fill:#878787;}
</style>
<g>
	<path class="st0" d="M1265.4,717c0,11,8.9,20,20,20h179.1c11.1,0,20-9,20-20V342.4c0-11-8.9-20-20-20h-179.1c-11.1,0-20,9-20,20
		V717z"/>
	<path class="st1" d="M1265.4,717c0,11,8.9,20,20,20h179.1c11.1,0,20-9,20-20V342.4c0-11-8.9-20-20-20h-179.1c-11.1,0-20,9-20,20
		V717z"/>
</g>
<g>
	<path d="M1323.1,720.1c0,1.4,1.1,2.5,2.5,2.5h97.9c1.4,0,2.5-1.1,2.5-2.5s-1.1-2.5-2.5-2.5h-97.9
		C1324.3,717.7,1323.1,718.8,1323.1,720.1C1323.1,720.1,1323.1,718.8,1323.1,720.1z"/>
</g>
<g>
	<path d="M445.4,356.3l-107,143.5c-8.2,11-18.1,19.9-29.7,26.5c-11.6,6.6-23.8,10.9-36.7,12.7c-12.8,1.9-25.8,1.3-38.8-1.7
		c-13-3-25-8.7-36.1-16.9L183,509.7l-12.1-9.1c-9.3-7-14.8-16.1-16.5-27.4c-1.7-11.3,1-21.7,7.9-31c7-9.3,16.1-14.8,27.4-16.5
		c11.2-1.6,21.4,0.9,30.6,7.7l16.9,12.6l9.9,7.4c3.9,2.9,8.2,4,13,3.4c4.7-0.7,8.5-3,11.4-6.9l107-143.5c7-9.3,16.1-14.8,27.4-16.5
		c11.3-1.7,21.7,1,31,7.9c9.3,7,14.8,16.1,16.5,27.4C455,336.6,452.4,346.9,445.4,356.3z"/>
	<path class="st2" d="M237.2,446l-16.9-12.6c0.1,0.1,0.3,0.2,0.4,0.3L237.2,446z"/>
</g>
<g>
	<path class="st3" d="M156.8,723.7l107-143.5c8.2-11,18.1-19.9,29.7-26.5c11.6-6.6,23.8-10.9,36.7-12.7c12.8-1.9,25.8-1.3,38.8,1.7
		c13,3,25,8.7,36.1,16.9l14.2,10.6l12.1,9.1c9.3,7,14.8,16.1,16.5,27.4c1.7,11.3-1,21.7-7.9,31c-7,9.3-16.1,14.8-27.4,16.5
		c-11.2,1.6-21.4-0.9-30.6-7.7L365,634l-9.9-7.4c-3.9-2.9-8.2-4-13-3.4c-4.7,0.7-8.5,3-11.4,6.9l-107,143.5
		c-7,9.3-16.1,14.8-27.4,16.5c-11.3,1.7-21.7-1-31-7.9c-9.3-7-14.8-16.1-16.5-27.4C147.2,743.4,149.8,733.1,156.8,723.7z"/>
	<path class="st3" d="M365,634l16.9,12.6c-0.1-0.1-0.3-0.2-0.4-0.3L365,634z"/>
</g>
<g>
	<path d="M582.4,373.6h76.3c8.9,0,16.3,3.1,22.4,9.3c6.1,6.2,9.1,13.7,9.1,22.6s-3,16.4-9.1,22.6c-6.1,6.2-13.5,9.3-22.4,9.3h-76.3
		c-7.9,0-15.5,1.6-22.6,4.7s-13.4,7.5-18.7,13c-5.4,5.5-9.6,11.8-12.6,18.9c-3,7.1-4.5,14.8-4.5,22.9c0,7.9,1.5,15.5,4.5,22.6
		c3,7.1,7.2,13.4,12.6,18.7c5.4,5.4,11.6,9.6,18.7,12.6c7.1,3,14.6,4.5,22.6,4.5h76.3c8.9,0,16.3,3.1,22.4,9.3
		c6.1,6.2,9.1,13.7,9.1,22.6s-3,16.4-9.1,22.6c-6.1,6.2-13.5,9.3-22.4,9.3h-76.3c-16.8,0-32.6-3.2-47.4-9.6
		c-14.8-6.4-27.8-15.2-38.8-26.2c-11.1-11.1-19.8-24.1-26.2-39c-6.4-14.9-9.6-30.9-9.6-48c0-17.3,3.3-33.3,9.8-48.1
		c6.5-14.8,15.3-27.8,26.4-38.9c11.1-11.1,24-19.8,38.8-26.1C550.1,376.8,565.8,373.6,582.4,373.6z"/>
	<path d="M758.4,373.6c8.9,0,16.4,3.1,22.6,9.3c6.2,6.2,9.3,13.7,9.3,22.6v181.3c0,8.9-3.1,16.4-9.3,22.6
		c-6.2,6.2-13.7,9.3-22.6,9.3c-8.9,0-16.4-3.1-22.6-9.3c-6.2-6.2-9.3-13.7-9.3-22.6V405.5c0-8.9,3.1-16.4,9.3-22.6
		C742,376.7,749.5,373.6,758.4,373.6z M814.1,496.1c0-8.9,3.1-16.4,9.3-22.6c6.2-6.2,13.7-9.3,22.6-9.3h48v-58.8
		c0-8.9,3.1-16.4,9.3-22.6c6.2-6.2,13.7-9.3,22.6-9.3c8.9,0,16.4,3.1,22.6,9.3c6.2,6.2,9.3,13.7,9.3,22.6v181.3
		c0,8.9-3.1,16.4-9.3,22.6c-6.2,6.2-13.7,9.3-22.6,9.3s-16.4-3.1-22.6-9.3c-6.2-6.2-9.3-13.7-9.3-22.6V528h-48
		c-8.9,0-16.4-3.1-22.6-9.3C817.2,512.5,814.1,505,814.1,496.1z"/>
	<path d="M1001,541.3v-90.6c0-10.7,2-20.8,6.1-30.1c4.1-9.3,9.6-17.5,16.6-24.5c7-7,15.2-12.5,24.5-16.6s19.4-6.1,30.1-6.1h73.8
		c10.7,0,20.8,2,30.3,6.1c9.4,4.1,17.7,9.6,24.7,16.6s12.5,15.2,16.6,24.5c4.1,9.3,6.1,19.4,6.1,30.1v6c0,10.7-2,20.8-6.1,30.1
		c-4.1,9.3-9.6,17.5-16.6,24.5s-15.2,12.5-24.7,16.6c-9.4,4.1-19.6,6.1-30.3,6.1h-86.1c-0.9,0-1.4,0.5-1.4,1.4v6
		c0,4,1.3,7.2,3.8,9.8c2.6,2.6,5.8,3.8,9.8,3.8h119c4.4,0,8.6,0.8,12.4,2.5c3.8,1.6,7.2,3.9,10.2,6.8c2.9,2.9,5.2,6.4,6.8,10.3
		c1.6,4,2.4,8.2,2.4,12.6c0,8.9-3.2,16.3-9.4,22.4c-6.3,6.1-13.9,9.1-22.8,9.1h-118.7c-10.7,0-20.8-2-30.1-6.1s-17.5-9.6-24.5-16.6
		c-7-7-12.5-15.2-16.6-24.5C1003,562,1001,552,1001,541.3z M1066.1,470.2h86.1c4,0,7.3-1.3,10-4c2.7-2.7,4-5.9,4-9.6v-6
		c0-4-1.3-7.2-4-9.8c-2.7-2.6-6-3.9-10-3.9h-73.8c-4,0-7.2,1.3-9.8,3.9c-2.6,2.6-3.8,5.8-3.8,9.8v18.2
		C1064.7,469.7,1065.1,470.2,1066.1,470.2z"/>
	<path d="M1382.1,373.6h76.3c4.4,0,8.6,0.8,12.4,2.5c3.8,1.6,7.2,3.9,10,6.8c2.8,2.9,5,6.4,6.7,10.3c1.6,4,2.4,8.2,2.4,12.6
		c0,8.9-3,16.3-9.1,22.4c-6.1,6.1-13.5,9.1-22.4,9.1h-76.3c-7.9,0-15.5,1.6-22.6,4.7c-7.1,3.1-13.4,7.4-18.7,12.8
		s-9.6,11.6-12.6,18.7c-3,7.1-4.6,14.8-4.6,22.9c0,7.9,1.5,15.5,4.6,22.6c3,7.1,7.2,13.4,12.6,18.7c5.4,5.4,11.6,9.6,18.7,12.6
		c7.1,3,14.6,4.5,22.6,4.5h76.3c8.9,0,16.3,3.1,22.4,9.3c6.1,6.2,9.1,13.7,9.1,22.6c0,8.9-3,16.4-9.1,22.6
		c-6.1,6.2-13.5,9.3-22.4,9.3h-76.3c-16.8,0-32.6-3.2-47.4-9.6c-14.8-6.4-27.8-15.2-38.8-26.2s-19.8-24.1-26.2-39
		c-6.4-14.9-9.6-30.9-9.6-48c0-17.3,3.3-33.3,9.8-48.1c6.5-14.8,15.3-27.7,26.4-38.7c11.1-11,24-19.6,38.8-25.9
		C1349.9,376.8,1365.5,373.6,1382.1,373.6z"/>
	<path d="M1558.5,373.3c8.9,0,16.4,3.1,22.6,9.3c6.2,6.2,9.3,13.7,9.3,22.6v181.7c0,8.9-3.1,16.4-9.3,22.6
		c-6.2,6.2-13.7,9.3-22.6,9.3c-8.9,0-16.4-3.1-22.6-9.3c-6.2-6.2-9.3-13.7-9.3-22.6V405.1c0-8.9,3.1-16.4,9.3-22.6
		C1542.1,376.4,1549.6,373.3,1558.5,373.3z M1620.1,483.2v-0.7c0.5-0.9,1-1.9,1.6-2.8c0.6-0.9,2.1-2.7,4.6-5.2
		c2.4-2.6,6.1-6.3,10.8-11.2c4.8-4.9,11.6-11.9,20.5-21l57.8-59.1c6.3-6.3,13.9-9.5,22.8-9.5c8.9,0,16.4,3,22.6,9.1
		c6.2,6.1,9.3,13.5,9.3,22.4c0,8.4-3,15.9-9.1,22.4l-67.2,68.9l68.2,67.5c6.5,6.5,9.8,14.1,9.8,22.8c0,4.2-0.9,8.2-2.6,12.1
		c-1.8,3.8-4.1,7.2-7,10.2c-2.9,2.9-6.3,5.2-10.2,7s-7.9,2.6-12.1,2.6c-8.4,0-15.9-3-22.4-9.1l-91-90c-3.3-3-5.7-6.5-7.2-10.5
		c-1.5-4-2.3-7.9-2.3-11.9c0-2.1,0.2-4.3,0.7-6.6C1618.1,488.2,1618.9,485.7,1620.1,483.2z"/>
</g>
</svg>
